<?xml version="1.0"?><svg width="640" height="480" xmlns="http://www.w3.org/2000/svg">
 <title>tornado</title>
 <defs>
  <filter id="filter3891" color-interpolation-filters="sRGB">
   <feGaussianBlur stdDeviation="10.15612" id="feGaussianBlur3893"/>
  </filter>
 </defs>
 <metadata id="metadata7">image/svg+xml</metadata>
 <g>
  <title>Layer 1</title>
  <g id="layer1" opacity="0.6">
   <path id="path3869" d="m169.351456,97.111038c-1.476242,-6.395721 -9.28894,-3.764267 2.39209,-28.902061c44.204758,-44.451332 241.493576,-54.101357 267.350204,-16.514839c11.255951,11.003761 10.274445,22.812881 -2.392883,35.38974c13.117249,12.312759 20.195831,37.550552 -6.579041,50.725433c12.385529,15.638229 13.624023,27.778793 -8.97113,32.440475c-1.691589,26.618759 -2.068634,40.673462 -29.307037,44.827606c4.876221,26.920563 -11.558563,36.869965 -19.139099,41.287476c7.351563,11.857178 23.962494,10.999756 -0.598022,35.979767c28.459259,6.003448 38.792145,19.892426 19.139099,35.979767c12.762573,4.331055 28.784271,16.446014 16.747009,34.21051c22.357361,13.581604 13.301361,25.9487 -2.990936,29.49118c-0.325012,3.808289 0.843811,9.08963 -2.392059,10.027069c7.016113,14.816833 -13.585571,22.615143 -22.130005,23.003387l-2.990112,4.718567c-9.03598,24.566101 -12.930695,18.706787 -19.139099,26.542694c-7.403625,10.925354 -1.270477,15.175476 0,21.824219c-7.559723,-4.195801 -17.623627,-3.042969 -16.148987,-26.542725c-6.991333,-6.246796 -16.142578,-11.641815 7.775085,-30.081207c-4.511169,-14.197998 11.185486,-19.198334 26.914978,-24.183441c-11.473694,-9.792511 -10.167969,-21.877014 -4.186951,-34.799744c-16.205841,-9.128021 -37.513641,-0.627655 -36.4841,-33.620483c-2.231171,-10.242432 -52.201599,6.735962 -55.62323,-54.853882c-9.881348,2.38327 -46.423111,-0.497131 -25.71814,-31.26123c-14.996964,-11.95163 -42.727859,-4.170929 -37.680313,-47.186859c-6.615845,-6.221985 -32.341995,12.351929 -11.962021,-28.901169c0.311417,-4.666489 -46.820206,8.128922 -14.354126,-43.05835c-20.319107,-1.071152 -40.175507,-2.416107 -21.531174,-26.541901l0,0l0,0z" filter="url(#filter3891)" fill="#020203"/>
   <path d="m211.91185,170.038361c80.484726,-48.876892 157.285263,-29.442383 169.262497,-22.872955c-62.580109,-3.187851 -125.107391,5.386993 -177.839752,46.889877c0.915054,-6.96814 1.33374,-13.532776 8.577255,-24.016922l0,0z" id="path3040" fill="#b7c7de"/>
   <path d="m177.030045,102.562531c-1.411118,-6.200317 -8.88092,-3.6492 2.287323,-28.019753c42.263138,-43.095024 230.887711,-52.450424 255.608749,-16.011284c10.762207,10.668297 9.823425,22.116714 -2.287323,34.309891c12.541107,11.937546 19.308685,36.405167 -6.290161,49.177521c11.841156,15.16098 13.02533,26.931091 -8.577484,31.450729c-1.616821,25.806564 -1.977325,39.432037 -28.019745,43.459259c4.662354,26.099426 -11.051361,35.745544 -18.298615,40.028198c7.028931,11.495209 22.910004,10.664001 -0.571838,34.881714c27.209625,5.820282 37.088196,19.28479 18.298645,34.881714c12.202454,4.198608 27.520325,15.943665 16.011292,33.16626c21.375671,13.167419 12.717468,25.157288 -2.859192,28.591583c-0.310669,3.692169 0.806183,8.811829 -2.287323,9.7211c6.708008,14.364838 -12.988647,21.924866 -21.157776,22.301483l-2.859131,4.574615c-8.639343,23.816315 -12.362579,18.135925 -18.298645,25.732391c-7.07843,10.591827 -1.214569,14.712555 0,21.157806c-7.227905,-4.067627 -16.849213,-2.949768 -15.439423,-25.732391c-6.684387,-6.056244 -15.433868,-11.286377 7.433777,-29.163422c-4.313354,-13.764679 10.694122,-18.61203 25.732452,-23.445129c-10.96994,-9.494049 -9.721222,-21.209717 -4.002838,-33.738037c-15.494354,-8.849548 -35.86615,-0.608154 -34.881744,-32.594421c-2.133606,-9.930176 -49.908936,6.530334 -53.180298,-53.180359c-9.447845,2.310608 -44.384842,-0.481445 -24.588776,-30.307037c-14.338928,-11.5867 -40.851654,-4.043152 -36.025391,-45.746567c-6.325867,-6.032471 -30.921829,11.974655 -11.436646,-28.019745c0.297592,-4.523544 -44.764526,7.881088 -13.723953,-41.743698c-19.426636,-1.038681 -38.410995,-2.342728 -20.585938,-25.732422z" id="path2996" fill="#929eb4"/>
   <path d="m335.999298,326.148407c15.430115,-12.093353 31.98175,-22.805695 57.183502,-22.872955c-22.872894,-4.062836 -42.881378,4.28302 -61.18634,20.014099l4.002838,2.858856z" id="path3026" fill="#6a737a"/>
   <path d="m297.686554,311.566986c33.060059,-46.467926 74.052185,-40.028229 74.052185,-40.028229c0,0 -40.538422,-9.463898 -81.485992,31.736694c2.477936,2.47403 4.955841,4.400208 7.433807,8.291534z" id="path3028" fill="#69717c"/>
   <path d="m283.962555,273.254272c41.100372,-39.69458 79.484589,-35.739502 79.484589,-35.739502c-67.198273,-13.299469 -107.01651,30.202118 -106.932465,30.307098c2.350555,0.340637 9.947571,10.250732 27.447876,5.432404z" id="path3030" fill="#77808f"/>
   <path d="m245.649841,236.942932c22.048401,-22.716553 49.644653,-29.879639 89.205719,-31.450714c-21.709381,-7.776047 -100.617615,12.307007 -106.646591,23.15918c4.660767,3.093262 7.764923,6.631195 17.440872,8.291534z" id="path3032" fill="#77808f"/>
   <path d="m177.030045,102.562531c39.073456,-33.233589 99.157364,-45.128593 168.690323,-38.312729c-25.962952,-9.783356 -89.866791,-18.143745 -172.121307,22.873276c-1.019897,7.742767 0.654449,12.252411 3.430984,15.439453z" id="path3036" fill="#b7c8df"/>
   <path d="m186.75119,156.886505c54.438629,-55.180634 188.704437,-49.177505 188.704437,-49.177505c-7.873779,3.543198 -54.302002,-29.687836 -178.983292,22.301407c-3.637756,8.56134 -9.49942,14.898758 -9.721146,26.876099z" id="path3042" fill="#bbd5f0"/>
   <path d="m177.315964,117.144241c85.340805,-78.60836 255.865829,-31.116592 255.036942,-10.292969c-68.173279,-43.520355 -234.358902,-16.617233 -255.036942,10.292969z" id="path3038" fill="#b7c7de"/>
   <path d="m200.761063,167.751343c14.451385,-19.321671 40.144424,-21.306564 60.90007,-28.019745c-20.767212,1.607819 -39.541214,-4.093262 -70.335297,25.446503c4.01004,2.139984 6.155396,2.735168 9.435226,2.573242z" id="path3034" fill="#767f8e"/>
   <path d="m230.78212,50.525871c-9.933395,10.559204 -3.64978,12.10862 -0.571609,15.439445c-2.471329,4.574669 -14.255005,9.14933 2.858826,13.723907c-14.269089,12.653641 -14.321213,18.987701 -1.143204,19.442429c-0.59082,4.3927 -11.608185,13.59758 5.71843,9.721252c-6.277222,9.339386 -10.721146,18.679565 4.002823,28.01976c-1.017517,5.261292 -10.794815,13.261337 10.864456,11.43605c-8.078491,12.42717 -21.764145,27.137527 9.721252,23.445328c-19.827576,41.149002 -1.297729,36.635422 9.148865,41.74382c-2.297668,8.012054 -6.655914,17.260162 13.152435,12.008484c-3.544891,7.21228 -18.689972,13.699249 0,22.3013c-1.306488,8.694916 -7.736633,21.090881 17.155304,10.865265c-7.204285,12.42395 -12.418335,23.769562 2.858826,24.016907c-1.144012,14.86731 4.574402,22.110809 17.155304,21.728943c3.00769,2.93808 2.466522,7.903168 15.438843,5.14682c1.811676,2.785187 -5.427002,6.575836 8.578064,8.005646c1.02951,6.846436 -8.82782,15.870392 5.717651,20.014099c0.642029,5.367798 -2.678711,13.816956 10.865234,9.149658c0.453125,7.766266 8.088898,6.914459 16.011292,5.717621c-6.099487,14.868103 -5.337372,26.686035 2.287201,35.453796l-5.718414,9.721252c-6.627869,0.615631 -13.381439,1.104797 -12.580078,9.149628c-11.387207,2.416107 -10.587463,8.488403 -6.862427,15.438904c-6.985718,2.750702 -16.112152,3.628967 -11.436066,16.58371l1.715607,21.157288c1.844513,-6.900848 0.390686,-19.299194 6.290039,-19.442505c-2.028625,-16.001648 7.20108,-11.740265 12.008453,-15.438873c-0.49234,-5.425446 -4.973083,-11.737061 7.433258,-14.295685c0.055237,-10.183167 6.680695,-7.225891 10.865234,-9.149628c8.052094,-3.737854 8.879883,-10.571472 6.290039,-18.870117c-8.703705,-4.607269 -2.835602,-16.499634 0,-26.876556c-4.893036,-6.172333 3.614563,-18.529846 -18.870087,-16.582855c-0.970276,-4.823425 -5.334961,-8.514832 -15.439697,-10.292877c14.441376,-11.305573 4.683319,-18.340149 -6.290009,-25.160919c-5.527924,-11.463287 -11.055817,-14.647949 -16.58371,-10.864471c4.332642,-8.552429 6.310852,-16.965546 -14.867279,-24.016937c7.185059,-8.386688 18.163177,-16.7742 -4.002838,-25.160919c2.15274,-16.244263 2.585846,-30.597565 -10.292847,-30.306976c6.157166,-25.757355 -8.823822,-11.586563 -14.868073,-14.29567c6.559021,-5.981018 4.279846,-10.980545 -2.858826,-15.439682c16.293121,-8.288239 66.010559,-17.14328 -1.143982,-24.016937c26.188843,-10.018265 32.636597,-20.484833 -8.005646,-32.022568c22.615936,-9.651596 50.545227,-19.179916 9.721222,-30.306961c24.76947,-6.595856 19.733948,-14.184402 -1.143188,-22.301399c22.254089,-7.142632 17.041626,-17.337021 12.580078,-27.447906l9.721252,-9.14933c-28.223083,0.940506 -53.358429,4.968384 -75.48201,12.008461l0,0z" id="path2998" fill="#c3d5e9"/>
   <path d="m408.050079,183.190796c-92.877441,-35.917313 -192.472443,11.452896 -184.701385,14.29567c-0.721298,5.610352 -1.133591,10.123947 -1.143997,17.155319c46.289444,-25.987137 95.348831,-48.173172 185.845383,-31.450989l0,0z" id="path3044" fill="#bcd6f1"/>
   <path d="m384.033112,38.517387c20.903778,8.455055 25.863007,46.196358 2.287354,40.028221c59.216492,38.302383 0,56.03949 0,56.03949c32.470825,17.775314 40.590088,31.762619 4.574615,38.884537c14.307587,29.673401 -9.073944,35.362915 -26.876099,44.602875c4.032288,14.324341 5.595886,28.778625 -18.870392,44.602875c19.174194,3.194305 32.372101,8.823364 10.864746,28.591583c14.367188,7.051453 36.724884,9.70816 22.301483,32.594421c15.260651,7.840729 24.505737,17.532379 20.014099,31.450714c9.061462,12.666718 15.65976,24.78598 -2.287354,31.450745c3.077667,18.774475 -6.420776,26.116211 -20.014099,29.73526c-3.641541,9.129425 -5.186462,20.355286 -16.011292,22.301392c-14.13443,7.169891 -10.684937,12.581421 -10.292938,18.298645l6.457611,13.619873c-3.247742,-13.190674 -1.299286,-21.020111 7.838135,-25.056549c6.5495,-5.199554 9.657745,-17.281708 14.295837,-26.304199c-1.542389,-1.296783 21.995148,1.458862 22.301392,-20.01413c0.953064,-3.812195 -0.46463,-11.180511 2.859161,-11.436615c16.906738,-5.034546 21.119476,-15.812744 1.784912,-28.054443c10.971344,-13.490112 -3.673004,-31.503174 -16.150055,-33.131561c25.291992,-23.273193 -7.647827,-32.652344 -18.229279,-34.309875c11.1521,-11.529694 15.426056,-18.388885 0.36969,-35.522949c15.657715,-9.390198 20.617188,-22.994904 18.500793,-39.387024c15.909943,-3.376801 28.118744,-9.298706 27.921631,-43.459198c20.317108,-6.681717 17.796448,-18.346176 8.675598,-31.450729c17.957581,-12.713486 21.127014,-28.987671 6.220734,-50.321198c27.98584,-34.121819 -28.03067,-52.930077 -48.536285,-53.752159z" id="path3000" fill="#77808f"/>
   <path d="m432.638794,92.269547c-22.823151,-10.115112 -45.991699,-20.092499 -85.77475,-23.445084c25.765259,1.699913 43.094269,-6.82048 92.636719,12.580276c-2.895905,7.881729 -4.647034,7.749954 -6.861969,10.864807z" id="path3002" fill="#6a727d"/>
   <path d="m426.348663,142.590744c-77.019409,-36.10881 -117.755005,-23.043716 -158.397369,-12.008469c103.804535,-16.579575 131.861206,9.549805 166.403015,32.022568c-0.000153,-6.0784 -1.211243,-12.425888 -8.005646,-20.014099z" id="path3004" fill="#69717a"/>
   <path d="m418.342987,173.469543c-43.136017,-23.562164 -69.549042,-13.67601 -100.642181,-13.151657c39.115601,1.720398 83.389191,4.081299 99.784729,19.727524l0.857452,-6.575867z" id="path3006" fill="#667079"/>
   <path d="m414.34021,202.061218c-72.264038,-30.453049 -134.161438,-2.879318 -137.239594,1.143677c76.373199,-13.823364 104.248505,-2.457153 127.518433,9.149292c5.435028,-1.785004 7.159668,-6.352783 9.721161,-10.292969z" id="path3008" fill="#616b77"/>
   <path d="m390.895081,218.644348c-43.764557,-15.567566 -83.928894,-4.904724 -122.371979,18.298645c36.073395,-14.448914 72.237274,-28.363464 120.942383,-3.43103c2.344086,-3.710815 1.115601,-9.803406 1.429596,-14.867615z" id="path3010" fill="#68727b"/>
   <path d="m383.461273,246.664093c-41.771423,-3.453491 -61.720459,10.8237 -79.484589,26.876068c22.388458,-6.444733 44.059357,-20.332642 70.621216,-12.86618c-8.946472,-4.043579 4.96344,-9.290161 8.863373,-14.009888z" id="path3012" fill="#6a727d"/>
   <path d="m378.886597,282.117645c-46.74408,1.00174 -48.620605,16.959381 -58.326813,30.307068c15.122467,-9.696686 24.966187,-23.555878 51.464844,-22.587311c4.14679,-2.573242 4.747009,-5.146515 6.861969,-7.719757z" id="path3014" fill="#69717c"/>
   <path d="m399.758636,313.282501c-26.677216,1.240082 -38.691223,15.316406 -51.750885,26.589935c14.153198,-5.382996 25.943085,-17.870178 41.458038,-13.72403l10.292847,-12.865906z" id="path3016" fill="#69727b"/>
   <path d="m371.166504,359.886536c10.655518,-1.802063 12.219818,-11.150238 31.736786,0c-5.147614,-7.293915 -9.388214,-15.402008 -36.025391,-3.430389l4.288605,3.430389z" id="path3018" fill="#667079"/>
   <path d="m409.765533,364.461426c-9.76416,-0.933014 -16.66983,3.136292 -23.445068,7.433807c14.676971,-3.049744 25.160553,-2.287292 31.450714,2.287354c-1.322998,-5.595093 -3.641388,-9.448242 -8.005646,-9.721161z" id="path3020" fill="#6a737c"/>
   <path d="m407.47818,386.19101c-4.184418,-5.323334 -15.80307,-2.283295 -25.732391,-1.143677c7.063538,2.031372 17.024811,3.579773 20.014099,6.290161c-1.143677,-2.859192 0.762421,-4.574646 5.718292,-5.146484z" id="path3022" fill="#6a707c"/>
   <path d="m397.75708,410.207947c-20.904541,6.449799 -29.252838,1.240265 -40.028229,-1.715515c5.477173,5.758362 15.320343,12.76413 16.011292,17.154938c4.316437,-6.991058 15.628662,-10.484283 24.016937,-15.439423z" id="path3024" fill="#6b747d"/>
   <path d="m205.049805,44.807533c-58.199188,13.567619 -41.121292,22.03186 -48.033844,28.591568c-17.62529,-18.297348 39.201645,-26.967422 48.033844,-28.591568z" id="path3816" fill="#6a727d"/>
   <path d="m335.427429,24.793427c36.96402,1.93042 148.395844,-2.392067 123.515594,36.597206c7.971802,-23.407272 -44.905334,-32.936714 -123.515594,-36.597206z" id="path3818" fill="#69717a"/>
   <path d="m175.31456,92.841385c-34.131683,13.467697 -42.292526,22.746582 -29.163422,28.591568c-7.290848,-12.720261 13.150024,-20.240829 29.163422,-28.591568z" id="path3820" fill="#69717a"/>
   <path d="m196.472336,182.618958c-54.470184,10.823441 -4.101044,-29.966736 0,-29.163437c-14.434052,15.585022 -32.78096,32.759567 0,29.163437z" id="path3822" fill="#69717a"/>
   <path d="m230.210388,206.635895c-15.545639,4.835663 -44.503098,21.880951 -16.011276,22.301453c-16.491562,10.856079 -31.52388,-14.851501 16.011276,-22.301453z" id="path3824" fill="#69717a"/>
   <path id="path3826" d="m262.29657,251.746979c-13.3862,3.973267 -38.321228,17.978546 -13.787201,18.324036c-14.200714,8.919983 -27.144897,-12.202728 13.787201,-18.324036z" fill="#69717a"/>
   <path d="m288.60083,281.482239c-11.997986,3.307953 -34.347046,14.968079 -12.357391,15.255737c-12.727966,7.426331 -24.329773,-10.159454 12.357391,-15.255737z" id="path3839" fill="#69717a"/>
   <path id="path3841" d="m288.60083,281.482239c-11.997986,3.307953 -34.347046,14.968079 -12.357391,15.255737c-12.727966,7.426331 -24.329773,-10.159454 12.357391,-15.255737z" fill="#69717a"/>
   <path id="path3843" d="m339.430237,315.855743c-15.545624,4.835693 -44.503113,21.880951 -16.011261,22.301422c-16.491577,10.85614 -31.523926,-14.851501 16.011261,-22.301422z" fill="#69717a"/>
   <path d="m377.171143,349.021942c-15.545685,4.835693 -44.503143,21.88089 -16.011292,22.301453c-16.491547,10.85611 -31.523895,-14.851532 16.011292,-22.301453z" id="path3845" fill="#69717a"/>
   <path id="path3847" d="m386.775177,400.929871c-34.104797,-13.535675 -46.405212,-12.354034 -40.831238,0.892426c3.388031,-14.26474 23.43988,-5.761047 40.831238,-0.892426z" fill="#69717a"/>
   <path d="m374.224487,313.346558c14.318176,-7.748627 46.741638,-16.568726 27.143524,4.116425c19.287598,-4.220856 11.387573,-32.933899 -27.143524,-4.116425z" id="path3849" fill="#69717a"/>
   <path id="path3851" d="m388.661987,349.689117c13.960449,-8.376038 45.960785,-18.62558 27.299377,2.908447c19.081421,-5.072174 9.915649,-33.406616 -27.299377,-2.908447z" fill="#69717a"/>
   <path d="m363.658539,266.816925c14.562347,-7.652618 46.24823,-15.713715 24.825317,5.465576c18.697052,-3.705688 15.540863,-34.519165 -24.825317,-5.465576z" id="path3853" fill="#69717a"/>
   <path d="m374.315308,235.419006c16.662964,-4.148438 52.295074,-6.388977 27.060425,7.551605c20.949249,-0.491852 19.698822,-25.245026 -27.060425,-7.551605z" id="path3855" fill="#69717a"/>
   <path id="path3857" d="m392.60788,183.869049c21.271545,-2.101822 63.474304,1.595413 27.467285,14.239929c24.403473,3.193558 35.222046,-27.615417 -27.467285,-14.239929z" fill="#69717a"/>
   <path id="path3859" d="m429.130035,168.186951c73.193573,-36.440399 -18.948029,-35.650055 -23.172943,-31.176559c29.500244,3.93837 64.903625,6.127213 23.172943,31.176559z" fill="#69717a"/>
   <path id="path3861" d="m410.754242,88.326935c36.572144,-2.970703 47.989319,1.756363 38.785339,12.793732c0.931549,-14.631973 -20.730499,-12.36377 -38.785339,-12.793732z" fill="#69717a"/>
   <path d="m367.069031,413.886688c16.102478,2.400146 47.327087,14.813904 19.235046,19.588959c17.958466,8.204895 28.88028,-19.5 -19.235046,-19.588959z" id="path3863" fill="#69717a"/>
   <path d="m358.755432,427.805908c-26.696625,-13.535645 -36.325165,-12.353943 -31.961914,0.892426c2.652039,-14.264709 18.348267,-5.760986 31.961914,-0.892426z" id="path3865" fill="#69717a"/>
   <path id="path3867" d="m345.339417,435.044525c16.102509,2.400116 47.327057,14.813843 19.235107,19.588898c17.958435,8.204895 28.880249,-19.500092 -19.235107,-19.588898z" fill="#69717a"/>
   <path d="m232.579346,175.656143c27.680328,-18.430374 68.808502,-26.55661 97.851715,-24.6651c-27.225952,1.808304 -66.177948,9.645325 -97.851715,24.6651z" id="path3908" fill="#ffffff"/>
   <path id="path3910" d="m216.405518,146.543228c30.425476,-18.430374 75.632477,-26.55661 107.55603,-24.665115c-29.926056,1.808334 -72.741058,9.645355 -107.55603,24.665115z" fill="#ffffff"/>
   <path d="m213.786209,108.558762c32.17067,-15.18013 77.976181,-18.580643 109.53215,-13.393036c-29.952393,-1.300781 -73.348846,2.059814 -109.53215,13.393036z" id="path3912" fill="#ffffff"/>
   <path id="path3914" d="m244.709747,218.516815c21.961243,-18.430374 54.591827,-26.55661 77.63443,-24.665085c-21.6008,1.808304 -52.504822,9.645325 -77.63443,24.665085z" fill="#ffffff"/>
   <path d="m260.883545,254.907959c20.131134,-18.430389 50.042542,-26.55661 71.164917,-24.6651c-19.80069,1.808289 -48.129456,9.645325 -71.164917,24.6651z" id="path3916" fill="#ffffff"/>
  </g>
 </g>
</svg>